<svg xmlns="http://www.w3.org/2000/svg" viewBox="0 0 1440 320"><path fill="#C83C5A" fill-opacity="1" d="M0,64L7.5,85.3C15,107,30,149,45,144C60,139,75,85,90,90.7C105,96,120,160,135,165.3C150,171,165,117,180,128C195,139,210,213,225,208C240,203,255,117,270,117.3C285,117,300,203,315,208C330,213,345,139,360,106.7C375,75,390,85,405,122.7C420,160,435,224,450,256C465,288,480,288,495,277.3C510,267,525,245,540,218.7C555,192,570,160,585,154.7C600,149,615,171,630,170.7C645,171,660,149,675,122.7C690,96,705,64,720,64C735,64,750,96,765,138.7C780,181,795,235,810,213.3C825,192,840,96,855,53.3C870,11,885,21,900,21.3C915,21,930,11,945,10.7C960,11,975,21,990,53.3C1005,85,1020,139,1035,170.7C1050,203,1065,213,1080,186.7C1095,160,1110,96,1125,96C1140,96,1155,160,1170,192C1185,224,1200,224,1215,213.3C1230,203,1245,181,1260,154.7C1275,128,1290,96,1305,90.7C1320,85,1335,107,1350,117.3C1365,128,1380,128,1395,138.7C1410,149,1425,171,1433,181.3L1440,192L1440,320L1432.5,320C1425,320,1410,320,1395,320C1380,320,1365,320,1350,320C1335,320,1320,320,1305,320C1290,320,1275,320,1260,320C1245,320,1230,320,1215,320C1200,320,1185,320,1170,320C1155,320,1140,320,1125,320C1110,320,1095,320,1080,320C1065,320,1050,320,1035,320C1020,320,1005,320,990,320C975,320,960,320,945,320C930,320,915,320,900,320C885,320,870,320,855,320C840,320,825,320,810,320C795,320,780,320,765,320C750,320,735,320,720,320C705,320,690,320,675,320C660,320,645,320,630,320C615,320,600,320,585,320C570,320,555,320,540,320C525,320,510,320,495,320C480,320,465,320,450,320C435,320,420,320,405,320C390,320,375,320,360,320C345,320,330,320,315,320C300,320,285,320,270,320C255,320,240,320,225,320C210,320,195,320,180,320C165,320,150,320,135,320C120,320,105,320,90,320C75,320,60,320,45,320C30,320,15,320,8,320L0,320Z"></path></svg>