<svg id="visual" viewBox="0 0 900 600" width="900" height="600" xmlns="http://www.w3.org/2000/svg" xmlns:xlink="http://www.w3.org/1999/xlink" version="1.1"><rect x="0" y="0" width="900" height="600" fill="#000"></rect><path d="M0 106L37.5 110C75 114 150 122 225 133C300 144 375 158 450 154.5C525 151 600 130 675 125.2C750 120.3 825 131.7 862.5 137.3L900 143L900 0L862.5 0C825 0 750 0 675 0C600 0 525 0 450 0C375 0 300 0 225 0C150 0 75 0 37.5 0L0 0Z" fill="#AF2951" stroke-linecap="round" stroke-linejoin="miter"></path></svg>